PathFileType	4	(X/Y/Z)	../Python\walking\Walking05\task.trc
DataRate	CameraRate	NumFrames	NumMarkers	Units	OrigDataRate	OrigDataStartFrame	OrigNumFrames
200.000000	200.000000	7	30	mm	200.000000	378	605
Frame#	Time	C7			RBAK			CLAV			STRN			T10			RASI			RPSI			LPSI			LASI			PE01			PE02			PE03			RTH1			RTH2			RTH3			RTB1			RTB2			RTB3			RHEE			RD5M			RTOE			LTH1			LTH2			LTH3			LTB1			LTB2			LTB3			LHEE			LTOE			LD5M			
		X1	Y1	Z1	X2	Y2	Z2	X3	Y3	Z3	X4	Y4	Z4	X5	Y5	Z5	X6	Y6	Z6	X7	Y7	Z7	X8	Y8	Z8	X9	Y9	Z9	X10	Y10	Z10	X11	Y11	Z11	X12	Y12	Z12	X13	Y13	Z13	X14	Y14	Z14	X15	Y15	Z15	X16	Y16	Z16	X17	Y17	Z17	X18	Y18	Z18	X19	Y19	Z19	X20	Y20	Z20	X21	Y21	Z21	X22	Y22	Z22	X23	Y23	Z23	X24	Y24	Z24	X25	Y25	Z25	X26	Y26	Z26	X27	Y27	Z27	X28	Y28	Z28	X29	Y29	Z29	X30	Y30	Z30	

379	1.89	1352.638427734375	1499.064086914063	203.9368591308595	1335.293579101563	1416.036743164063	380.8614501953126	1469.230712890625	1410.359252929688	216.1313934326173	1527.058471679688	1219.359130859375	228.3911743164064	1300.612426757813	1241.347900390625	219.5579986572267	1505.431274414063	987.6774291992192	369.1863403320314	1347.203979492188	1047.788818359375	273.0711975097657	1347.881225585938	1056.262451171875	172.4539489746094	1527.952514648438	1016.304382324219	95.07355499267581	1353.981201171875	1099.437622070313	227.5389709472657	1342.971923828125	1037.138305664063	248.5242767333986	1341.17041015625	1041.805786132813	197.4996795654298	1404.178588867188	735.5676269531252	396.0543518066409	1342.774658203125	730.2742309570315	385.7640686035159	1349.35986328125	681.886901855469	373.8331298828126	1209.229125976563	376.7927856445314	331.6218872070314	1147.814575195313	370.999237060547	327.5609130859376	1153.721923828125	321.0214843750001	321.786834716797	922.2551269531255	182.1851959228516	236.835662841797	995.7812500000005	33.81994247436525	291.351043701172	1046.903930664063	32.29928588867189	246.8554992675782	1512.212158203125	711.8979492187502	57.18985748291018	1494.488159179688	666.6340942382815	67.85002136230472	1551.745483398438	646.444519042969	76.7448425292969	1576.899291992188	350.2817687988282	103.3864517211915	1555.135009765626	306.7865295410157	113.9042587280274	1611.380615234376	281.3370361328126	119.1231384277344	1576.062133789063	34.77819824218751	195.8921051025392	1786.787963867188	35.0167808532715	206.6282196044923	1748.453613281251	19.18747138977051	154.7238464355469	
380	1.895	1359.49755859375	1499.705322265625	203.7626495361329	1342.157958984375	1416.945068359375	380.7149963378907	1476.192138671875	1411.22314453125	216.0784301757814	1534.291259765625	1220.36669921875	228.5517120361329	1307.881103515625	1241.987548828125	219.7494354248048	1512.750244140625	987.7780151367192	368.7730712890626	1354.444458007813	1048.244506835938	273.5996093750001	1354.9150390625	1057.29638671875	173.0136413574219	1534.935791015625	1018.147888183594	95.09980010986331	1361.051879882813	1100.134887695313	228.2913818359376	1350.145874023438	1037.709716796875	248.9612579345704	1348.288452148438	1042.639404296875	197.9621887207032	1413.8046875	734.739196777344	395.6292114257815	1352.521728515625	728.7351074218752	385.1310119628909	1359.63720703125	680.3159179687502	373.6187133789064	1220.652099609375	375.8937072753907	332.6219177246095	1159.191772460938	371.0740051269532	328.8643188476564	1164.248291015625	321.0462036132814	322.9955444335939	930.5559082031255	188.1157531738282	239.8779449462892	998.8112182617192	36.7508010864258	292.2366333007814	1048.144653320313	33.29553222656251	247.2805633544923	1519.267822265625	713.6541748046877	56.70404434204104	1501.3759765625	668.3876953125002	66.64323425292972	1558.444091796876	648.0689697265627	76.66790771484378	1579.742675781251	350.9803466796876	102.7801513671876	1557.513916015626	307.6336975097657	113.1064910888672	1613.589355468751	281.7625732421876	118.8544845581055	1576.039672851563	34.7628860473633	195.7668914794923	1786.877929687501	35.0724563598633	206.6944885253907	1748.415649414063	19.32683372497559	154.5551147460938	
381	1.9	1366.3427734375	1500.375366210938	203.5997314453126	1348.991943359375	1417.8828125	380.575897216797	1483.12548828125	1412.09814453125	216.0438690185548	1541.457153320313	1221.3701171875	228.7295379638673	1315.087280273438	1242.66943359375	219.9259490966798	1519.935424804688	987.9318237304692	368.3880920410157	1361.579956054688	1048.71142578125	274.0935363769532	1361.873168945313	1058.31884765625	173.5471954345704	1541.853759765626	1019.943969726563	95.12061309814456	1368.033325195313	1100.83349609375	229.0013732910157	1357.219604492188	1038.290893554688	249.3676757812501	1355.325317382813	1043.467895507813	198.3948974609376	1423.47900390625	733.930603027344	395.1909484863284	1362.337646484375	727.1394653320315	384.4744262695315	1370.046997070313	678.6949462890627	373.3963623046876	1232.438232421875	374.9415283203126	333.5798645019532	1170.948974609375	371.0809936523439	330.2003784179689	1175.151000976563	321.0301513671876	324.1507263183595	939.2759399414067	194.069549560547	242.9620208740236	1002.3095703125	39.94529342651369	293.2073669433595	1049.84033203125	34.49451065063478	247.8411560058595	1526.185913085938	715.3081054687502	56.20170974731448	1508.0849609375	670.0756835937502	65.47349548339847	1564.925170898438	649.5426025390627	76.56789398193362	1582.308471679688	351.6117248535157	102.1695632934571	1559.661743164063	308.4155883789064	112.3656768798829	1615.572143554688	282.1408996582032	118.5150833129883	1575.979248046876	34.71903228759767	195.6329650878907	1786.924316406251	35.16093063354494	206.6905670166017	1748.344482421876	19.430570602417	154.3896789550782	
382	1.905	1373.1728515625	1501.071044921875	203.4483642578126	1355.791870117188	1418.843017578125	380.4434509277345	1490.029174804688	1412.979858398438	216.0281372070314	1548.554809570313	1222.363525390625	228.9238739013673	1322.229370117188	1243.388916015625	220.0837249755861	1526.987426757813	988.1381225585942	368.0364990234376	1368.612182617188	1049.186157226563	274.5457458496095	1368.757934570313	1059.323364257813	174.0463256835938	1548.710571289063	1021.675842285157	95.13611602783206	1374.92919921875	1101.529418945313	229.6611328125001	1364.195556640625	1038.878173828125	249.7375793457032	1362.282104492188	1044.286743164063	198.7915954589845	1433.18896484375	733.153991699219	394.7460632324221	1372.211669921875	725.5051269531252	383.7990112304689	1380.576171875	677.045349121094	373.1664428710939	1244.562744140625	373.9565429687501	334.4915771484376	1183.060668945313	371.0372314453126	331.5633239746095	1186.407958984375	320.990203857422	325.2481689453126	948.3983764648442	200.019500732422	246.0453643798829	1006.311767578125	43.38850021362306	294.2645263671876	1052.057861328125	35.90029525756837	248.5551605224611	1532.902709960938	716.8395996093752	55.69024276733401	1514.540161132813	671.6790771484377	64.35757446289065	1571.113037109376	650.839538574219	76.43586730957034	1584.622924804688	352.1678466796876	101.5571441650391	1561.601928710938	309.124481201172	111.6809310913087	1617.349853515626	282.4636535644532	118.1161346435547	1575.894165039063	34.65825653076173	195.4913024902345	1786.946899414063	35.25650787353517	206.636444091797	1748.256225585938	19.49313545227051	154.2294311523438	
383	1.91	1379.986206054688	1501.789306640625	203.3087921142579	1362.554565429688	1419.819213867188	380.316864013672	1496.901611328125	1413.864013671875	216.0314331054689	1555.583251953126	1223.341674804688	229.1336669921876	1329.306518554688	1244.140747070313	220.2191314697267	1533.908569335938	988.3959960937505	367.7225952148439	1375.544067382813	1049.666381835938	274.949432373047	1375.572509765625	1060.3046875	174.5030670166016	1555.510864257813	1023.328369140625	95.14676666259768	1381.744262695313	1102.219116210938	230.2634735107423	1371.076782226563	1039.468872070313	250.0653839111329	1369.160522460938	1045.092163085938	199.146453857422	1442.92138671875	732.4221801757815	394.3020324707034	1382.132202148438	723.851989746094	383.1102905273439	1391.2099609375	675.391296386719	372.9297790527345	1256.998657226563	372.9605102539064	335.3545227050782	1195.498901367188	370.9612426757814	332.9465332031251	1197.9951171875	320.9442749023439	326.2854614257814	957.904418945313	205.9357757568361	249.0816955566407	1010.850463867188	47.05983734130861	295.409637451172	1054.86083984375	37.51109313964845	249.4390258789064	1539.359863281251	718.2335205078127	55.17729949951175	1520.676025390625	673.181823730469	63.3100509643555	1576.944702148438	651.943054199219	76.26310729980472	1586.715209960938	352.6437072753907	100.9467697143555	1563.358886718751	309.7557983398439	111.0518035888672	1618.944702148438	282.724578857422	117.670753479004	1575.795166015626	34.59058761596681	195.3442840576173	1786.962524414063	35.34007644653322	206.5500335693361	1748.163940429688	19.5136833190918	154.0755462646485	
384	1.915	1386.78173828125	1502.52685546875	203.1811370849611	1369.276977539063	1420.8046875	380.1952514648439	1503.741455078125	1414.7470703125	216.0537567138673	1562.542236328126	1224.300170898438	229.3575897216798	1336.318359375	1244.919799804688	220.328826904297	1540.702880859376	988.704467773438	367.4497680664064	1382.379516601563	1050.150024414063	275.2985839843751	1382.319946289063	1061.258422851563	174.9100341796876	1562.258789062501	1024.887939453125	95.15321350097659	1388.48388671875	1102.899658203125	230.8020324707032	1377.867553710938	1040.060546875	250.346160888672	1375.963012695313	1045.881469726563	199.4542694091798	1452.662109375	731.7482910156252	393.867370605469	1392.087036132813	722.201843261719	382.4143676757814	1401.9306640625	673.7583007812502	372.6878662109376	1269.717651367188	371.9761352539064	336.1677856445314	1208.234252929688	370.872528076172	334.3425903320314	1209.887084960938	320.910614013672	327.261932373047	967.7739257812505	211.7858428955079	252.0225372314454	1015.955322265625	50.933219909668	296.6445922851564	1058.309326171875	39.31933593750001	250.5075073242189	1545.508178710938	719.479919433594	54.67042160034183	1526.442138671875	674.5715942382815	62.34271621704104	1582.374511718751	652.8457641601565	76.04258728027347	1588.615356445313	353.0374145507814	100.3436431884766	1564.957397460938	310.3081970214845	110.4787292480469	1620.379394531251	282.9200134277345	117.1928634643555	1575.691772460938	34.52423477172853	195.1954345703126	1786.984252929688	35.39855575561525	206.4466857910157	1748.077270507813	19.49495315551759	153.9286346435547	
385	1.92	1393.557983398438	1503.28076171875	203.0654296875001	1375.956420898438	1421.793090820313	380.0776672363282	1510.547729492188	1415.625244140625	216.0948486328126	1569.431884765626	1225.234741210938	229.5941009521486	1343.264770507813	1245.721313476563	220.4097442626954	1547.375732421876	989.062622070313	367.2202453613282	1389.122924804688	1050.635864257813	275.5881652832032	1389.00390625	1062.181518554688	175.2606964111329	1568.958007812501	1026.343383789063	95.15616607666018	1395.15380859375	1103.568969726563	231.2714385986329	1384.572509765625	1040.651611328125	250.5757446289064	1382.692138671875	1046.652954101563	199.7106170654298	1462.396850585938	731.1450195312502	393.4510803222659	1402.062622070313	720.5771484375002	381.7178649902345	1412.718627929688	672.1728515625002	372.4429626464845	1282.690551757813	371.026336669922	336.9320373535157	1221.236083984375	370.7911071777345	335.7432250976564	1222.057739257813	320.907440185547	328.1787414550782	977.9855346679692	217.5348052978517	254.8194122314454	1021.652587890625	54.97745513916018	297.9720153808595	1062.457885742188	41.31201553344728	251.7730407714845	1551.311767578126	720.5738525390627	54.17660903930667	1531.8056640625	675.8396606445315	61.46428680419925	1587.377075195313	653.5490722656252	75.77020263671878	1590.352050781251	353.3504028320314	99.75401306152349	1566.421020507813	310.7833251953126	109.9629745483399	1621.676025390626	283.0491333007814	116.6963195800782	1575.590820312501	34.46553039550783	195.0491638183595	1787.021606445313	35.42416000366212	206.3389434814454	1748.002685546876	19.44219017028809	153.7889862060547	
